<mxfile><diagram id="Xze8b32Qx2uB68xgN7-p" name="Page-1"><mxGraphModel dx="2540" dy="1424" grid="1" gridSize="10" guides="1" tooltips="1" connect="1" arrows="1" fold="1" page="1" pageScale="1" pageWidth="4681" pageHeight="3300" math="0" shadow="0"><root><mxCell id="0"/><mxCell id="1" parent="0"/><mxCell id="2" value="USERS" style="shape=table;startSize=30;container=1;collapsible=1;childLayout=tableLayout;fixedRows=1;rowLines=0;fontStyle=1;align=center;resizeLast=1;labelBackgroundColor=none;labelBorderColor=none;" vertex="1" parent="1"><mxGeometry x="1450" y="490" width="360" height="180" as="geometry"/></mxCell><mxCell id="3" value="" style="shape=tableRow;horizontal=0;startSize=0;swimlaneHead=0;swimlaneBody=0;fillColor=default;collapsible=0;dropTarget=0;points=[[0,0.5],[1,0.5]];portConstraint=eastwest;top=0;left=0;right=0;bottom=1;labelBackgroundColor=none;labelBorderColor=none;" vertex="1" parent="2"><mxGeometry y="30" width="360" height="30" as="geometry"/></mxCell><mxCell id="4" value="PK" style="shape=partialRectangle;connectable=0;fillColor=none;top=0;left=0;bottom=0;right=0;fontStyle=1;overflow=hidden;labelBackgroundColor=none;labelBorderColor=none;" vertex="1" parent="3"><mxGeometry width="30" height="30" as="geometry"><mxRectangle width="30" height="30" as="alternateBounds"/></mxGeometry></mxCell><mxCell id="5" value="id BIGINTUNSIGNED PK AUTO UNIQUE NOTNULL" style="shape=partialRectangle;connectable=0;fillColor=default;top=0;left=0;bottom=0;right=0;align=left;spacingLeft=6;fontStyle=5;overflow=hidden;labelBackgroundColor=none;labelBorderColor=none;" vertex="1" parent="3"><mxGeometry x="30" width="330" height="30" as="geometry"><mxRectangle width="330" height="30" as="alternateBounds"/></mxGeometry></mxCell><mxCell id="6" value="" style="shape=tableRow;horizontal=0;startSize=0;swimlaneHead=0;swimlaneBody=0;fillColor=none;collapsible=0;dropTarget=0;points=[[0,0.5],[1,0.5]];portConstraint=eastwest;top=0;left=0;right=0;bottom=0;labelBackgroundColor=none;labelBorderColor=none;" vertex="1" parent="2"><mxGeometry y="60" width="360" height="30" as="geometry"/></mxCell><mxCell id="7" value="" style="shape=partialRectangle;connectable=0;fillColor=none;top=0;left=0;bottom=0;right=0;editable=1;overflow=hidden;labelBackgroundColor=none;labelBorderColor=none;" vertex="1" parent="6"><mxGeometry width="30" height="30" as="geometry"><mxRectangle width="30" height="30" as="alternateBounds"/></mxGeometry></mxCell><mxCell id="8" value="username VARCHAR(255) NOTNULL" style="shape=partialRectangle;connectable=0;fillColor=default;top=0;left=0;bottom=0;right=0;align=left;spacingLeft=6;overflow=hidden;labelBackgroundColor=none;labelBorderColor=none;" vertex="1" parent="6"><mxGeometry x="30" width="330" height="30" as="geometry"><mxRectangle width="330" height="30" as="alternateBounds"/></mxGeometry></mxCell><mxCell id="9" value="" style="shape=tableRow;horizontal=0;startSize=0;swimlaneHead=0;swimlaneBody=0;fillColor=none;collapsible=0;dropTarget=0;points=[[0,0.5],[1,0.5]];portConstraint=eastwest;top=0;left=0;right=0;bottom=0;labelBackgroundColor=none;labelBorderColor=none;" vertex="1" parent="2"><mxGeometry y="90" width="360" height="30" as="geometry"/></mxCell><mxCell id="10" value="" style="shape=partialRectangle;connectable=0;fillColor=none;top=0;left=0;bottom=0;right=0;editable=1;overflow=hidden;labelBackgroundColor=none;labelBorderColor=none;" vertex="1" parent="9"><mxGeometry width="30" height="30" as="geometry"><mxRectangle width="30" height="30" as="alternateBounds"/></mxGeometry></mxCell><mxCell id="11" value="password VARCHAR(255) NOTNULL" style="shape=partialRectangle;connectable=0;fillColor=default;top=0;left=0;bottom=0;right=0;align=left;spacingLeft=6;overflow=hidden;labelBackgroundColor=none;labelBorderColor=none;" vertex="1" parent="9"><mxGeometry x="30" width="330" height="30" as="geometry"><mxRectangle width="330" height="30" as="alternateBounds"/></mxGeometry></mxCell><mxCell id="12" value="" style="shape=tableRow;horizontal=0;startSize=0;swimlaneHead=0;swimlaneBody=0;fillColor=none;collapsible=0;dropTarget=0;points=[[0,0.5],[1,0.5]];portConstraint=eastwest;top=0;left=0;right=0;bottom=0;labelBackgroundColor=none;labelBorderColor=none;" vertex="1" parent="2"><mxGeometry y="120" width="360" height="30" as="geometry"/></mxCell><mxCell id="13" value="" style="shape=partialRectangle;connectable=0;fillColor=none;top=0;left=0;bottom=0;right=0;editable=1;overflow=hidden;labelBackgroundColor=none;labelBorderColor=none;" vertex="1" parent="12"><mxGeometry width="30" height="30" as="geometry"><mxRectangle width="30" height="30" as="alternateBounds"/></mxGeometry></mxCell><mxCell id="14" value="email VARCHAR(255) NOTNULL UNIQUE" style="shape=partialRectangle;connectable=0;fillColor=default;top=0;left=0;bottom=0;right=0;align=left;spacingLeft=6;overflow=hidden;labelBackgroundColor=none;labelBorderColor=none;" vertex="1" parent="12"><mxGeometry x="30" width="330" height="30" as="geometry"><mxRectangle width="330" height="30" as="alternateBounds"/></mxGeometry></mxCell><mxCell id="121" value="" style="shape=tableRow;horizontal=0;startSize=0;swimlaneHead=0;swimlaneBody=0;fillColor=none;collapsible=0;dropTarget=0;points=[[0,0.5],[1,0.5]];portConstraint=eastwest;top=0;left=0;right=0;bottom=0;labelBackgroundColor=none;labelBorderColor=none;" vertex="1" parent="2"><mxGeometry y="150" width="360" height="30" as="geometry"/></mxCell><mxCell id="122" value="" style="shape=partialRectangle;connectable=0;fillColor=none;top=0;left=0;bottom=0;right=0;editable=1;overflow=hidden;labelBackgroundColor=none;labelBorderColor=none;" vertex="1" parent="121"><mxGeometry width="30" height="30" as="geometry"><mxRectangle width="30" height="30" as="alternateBounds"/></mxGeometry></mxCell><mxCell id="123" value="birthdate DATE" style="shape=partialRectangle;connectable=0;fillColor=default;top=0;left=0;bottom=0;right=0;align=left;spacingLeft=6;overflow=hidden;labelBackgroundColor=none;labelBorderColor=none;" vertex="1" parent="121"><mxGeometry x="30" width="330" height="30" as="geometry"><mxRectangle width="330" height="30" as="alternateBounds"/></mxGeometry></mxCell><mxCell id="15" value="POSTS" style="shape=table;startSize=30;container=1;collapsible=1;childLayout=tableLayout;fixedRows=1;rowLines=0;fontStyle=1;align=center;resizeLast=1;labelBackgroundColor=none;labelBorderColor=none;" vertex="1" parent="1"><mxGeometry x="640" y="410" width="320" height="150" as="geometry"/></mxCell><mxCell id="16" value="" style="shape=tableRow;horizontal=0;startSize=0;swimlaneHead=0;swimlaneBody=0;fillColor=none;collapsible=0;dropTarget=0;points=[[0,0.5],[1,0.5]];portConstraint=eastwest;top=0;left=0;right=0;bottom=1;labelBackgroundColor=none;labelBorderColor=none;" vertex="1" parent="15"><mxGeometry y="30" width="320" height="30" as="geometry"/></mxCell><mxCell id="17" value="PK" style="shape=partialRectangle;connectable=0;fillColor=default;top=0;left=0;bottom=0;right=0;fontStyle=1;overflow=hidden;labelBackgroundColor=none;labelBorderColor=none;" vertex="1" parent="16"><mxGeometry width="30" height="30" as="geometry"><mxRectangle width="30" height="30" as="alternateBounds"/></mxGeometry></mxCell><mxCell id="18" value="id BIGINTUNSIGNED AUTO UNIQUE NOTNULL" style="shape=partialRectangle;connectable=0;fillColor=default;top=0;left=0;bottom=0;right=0;align=left;spacingLeft=6;fontStyle=5;overflow=hidden;labelBackgroundColor=none;labelBorderColor=none;" vertex="1" parent="16"><mxGeometry x="30" width="290" height="30" as="geometry"><mxRectangle width="290" height="30" as="alternateBounds"/></mxGeometry></mxCell><mxCell id="19" value="" style="shape=tableRow;horizontal=0;startSize=0;swimlaneHead=0;swimlaneBody=0;fillColor=none;collapsible=0;dropTarget=0;points=[[0,0.5],[1,0.5]];portConstraint=eastwest;top=0;left=0;right=0;bottom=0;labelBackgroundColor=none;labelBorderColor=none;" vertex="1" parent="15"><mxGeometry y="60" width="320" height="30" as="geometry"/></mxCell><mxCell id="20" value="FK" style="shape=partialRectangle;connectable=0;fillColor=default;top=0;left=0;bottom=0;right=0;editable=1;overflow=hidden;labelBackgroundColor=none;labelBorderColor=none;" vertex="1" parent="19"><mxGeometry width="30" height="30" as="geometry"><mxRectangle width="30" height="30" as="alternateBounds"/></mxGeometry></mxCell><mxCell id="21" value="user_id BIGINTUNSIGNED UNIQUE NOTNULL" style="shape=partialRectangle;connectable=0;fillColor=default;top=0;left=0;bottom=0;right=0;align=left;spacingLeft=6;overflow=hidden;labelBackgroundColor=none;labelBorderColor=none;" vertex="1" parent="19"><mxGeometry x="30" width="290" height="30" as="geometry"><mxRectangle width="290" height="30" as="alternateBounds"/></mxGeometry></mxCell><mxCell id="22" value="" style="shape=tableRow;horizontal=0;startSize=0;swimlaneHead=0;swimlaneBody=0;fillColor=none;collapsible=0;dropTarget=0;points=[[0,0.5],[1,0.5]];portConstraint=eastwest;top=0;left=0;right=0;bottom=0;labelBackgroundColor=none;labelBorderColor=none;" vertex="1" parent="15"><mxGeometry y="90" width="320" height="30" as="geometry"/></mxCell><mxCell id="23" value="" style="shape=partialRectangle;connectable=0;fillColor=none;top=0;left=0;bottom=0;right=0;editable=1;overflow=hidden;labelBackgroundColor=none;labelBorderColor=none;" vertex="1" parent="22"><mxGeometry width="30" height="30" as="geometry"><mxRectangle width="30" height="30" as="alternateBounds"/></mxGeometry></mxCell><mxCell id="24" value="body TEXT(2200)" style="shape=partialRectangle;connectable=0;fillColor=default;top=0;left=0;bottom=0;right=0;align=left;spacingLeft=6;overflow=hidden;labelBackgroundColor=none;labelBorderColor=none;" vertex="1" parent="22"><mxGeometry x="30" width="290" height="30" as="geometry"><mxRectangle width="290" height="30" as="alternateBounds"/></mxGeometry></mxCell><mxCell id="25" value="" style="shape=tableRow;horizontal=0;startSize=0;swimlaneHead=0;swimlaneBody=0;fillColor=none;collapsible=0;dropTarget=0;points=[[0,0.5],[1,0.5]];portConstraint=eastwest;top=0;left=0;right=0;bottom=0;labelBackgroundColor=none;labelBorderColor=none;" vertex="1" parent="15"><mxGeometry y="120" width="320" height="30" as="geometry"/></mxCell><mxCell id="26" value="" style="shape=partialRectangle;connectable=0;fillColor=none;top=0;left=0;bottom=0;right=0;editable=1;overflow=hidden;labelBackgroundColor=none;labelBorderColor=none;" vertex="1" parent="25"><mxGeometry width="30" height="30" as="geometry"><mxRectangle width="30" height="30" as="alternateBounds"/></mxGeometry></mxCell><mxCell id="27" value="created_date DATATIME NOTNULL" style="shape=partialRectangle;connectable=0;fillColor=default;top=0;left=0;bottom=0;right=0;align=left;spacingLeft=6;overflow=hidden;labelBackgroundColor=none;labelBorderColor=none;" vertex="1" parent="25"><mxGeometry x="30" width="290" height="30" as="geometry"><mxRectangle width="290" height="30" as="alternateBounds"/></mxGeometry></mxCell><mxCell id="28" value="MEDIAS" style="shape=table;startSize=30;container=1;collapsible=1;childLayout=tableLayout;fixedRows=1;rowLines=0;fontStyle=1;align=center;resizeLast=1;fillColor=default;" vertex="1" parent="1"><mxGeometry x="230" y="10" width="320" height="150" as="geometry"/></mxCell><mxCell id="29" value="" style="shape=tableRow;horizontal=0;startSize=0;swimlaneHead=0;swimlaneBody=0;fillColor=none;collapsible=0;dropTarget=0;points=[[0,0.5],[1,0.5]];portConstraint=eastwest;top=0;left=0;right=0;bottom=1;" vertex="1" parent="28"><mxGeometry y="30" width="320" height="30" as="geometry"/></mxCell><mxCell id="30" value="PK" style="shape=partialRectangle;connectable=0;fillColor=default;top=0;left=0;bottom=0;right=0;fontStyle=1;overflow=hidden;" vertex="1" parent="29"><mxGeometry width="30" height="30" as="geometry"><mxRectangle width="30" height="30" as="alternateBounds"/></mxGeometry></mxCell><mxCell id="31" value="id BIGINTUNSIGNED AUTO UNIQUE NOTNULL" style="shape=partialRectangle;connectable=0;fillColor=default;top=0;left=0;bottom=0;right=0;align=left;spacingLeft=6;fontStyle=5;overflow=hidden;" vertex="1" parent="29"><mxGeometry x="30" width="290" height="30" as="geometry"><mxRectangle width="290" height="30" as="alternateBounds"/></mxGeometry></mxCell><mxCell id="32" value="" style="shape=tableRow;horizontal=0;startSize=0;swimlaneHead=0;swimlaneBody=0;fillColor=none;collapsible=0;dropTarget=0;points=[[0,0.5],[1,0.5]];portConstraint=eastwest;top=0;left=0;right=0;bottom=0;labelBackgroundColor=none;labelBorderColor=none;" vertex="1" parent="28"><mxGeometry y="60" width="320" height="30" as="geometry"/></mxCell><mxCell id="33" value="FK" style="shape=partialRectangle;connectable=0;fillColor=default;top=0;left=0;bottom=0;right=0;editable=1;overflow=hidden;labelBackgroundColor=none;labelBorderColor=none;" vertex="1" parent="32"><mxGeometry width="30" height="30" as="geometry"><mxRectangle width="30" height="30" as="alternateBounds"/></mxGeometry></mxCell><mxCell id="34" value="user_id BIGINTUNSIGNED UNIQUE NOTNULL" style="shape=partialRectangle;connectable=0;fillColor=default;top=0;left=0;bottom=0;right=0;align=left;spacingLeft=6;overflow=hidden;labelBackgroundColor=none;labelBorderColor=none;" vertex="1" parent="32"><mxGeometry x="30" width="290" height="30" as="geometry"><mxRectangle width="290" height="30" as="alternateBounds"/></mxGeometry></mxCell><mxCell id="35" value="" style="shape=tableRow;horizontal=0;startSize=0;swimlaneHead=0;swimlaneBody=0;fillColor=none;collapsible=0;dropTarget=0;points=[[0,0.5],[1,0.5]];portConstraint=eastwest;top=0;left=0;right=0;bottom=0;labelBackgroundColor=none;labelBorderColor=none;" vertex="1" parent="28"><mxGeometry y="90" width="320" height="30" as="geometry"/></mxCell><mxCell id="36" value="" style="shape=partialRectangle;connectable=0;fillColor=none;top=0;left=0;bottom=0;right=0;editable=1;overflow=hidden;labelBackgroundColor=none;labelBorderColor=none;" vertex="1" parent="35"><mxGeometry width="30" height="30" as="geometry"><mxRectangle width="30" height="30" as="alternateBounds"/></mxGeometry></mxCell><mxCell id="37" value="path TEXT NOTNULL UNIQUE" style="shape=partialRectangle;connectable=0;fillColor=default;top=0;left=0;bottom=0;right=0;align=left;spacingLeft=6;overflow=hidden;labelBackgroundColor=none;labelBorderColor=none;" vertex="1" parent="35"><mxGeometry x="30" width="290" height="30" as="geometry"><mxRectangle width="290" height="30" as="alternateBounds"/></mxGeometry></mxCell><mxCell id="38" value="" style="shape=tableRow;horizontal=0;startSize=0;swimlaneHead=0;swimlaneBody=0;fillColor=none;collapsible=0;dropTarget=0;points=[[0,0.5],[1,0.5]];portConstraint=eastwest;top=0;left=0;right=0;bottom=0;labelBackgroundColor=none;labelBorderColor=none;" vertex="1" parent="28"><mxGeometry y="120" width="320" height="30" as="geometry"/></mxCell><mxCell id="39" value="" style="shape=partialRectangle;connectable=0;fillColor=none;top=0;left=0;bottom=0;right=0;editable=1;overflow=hidden;labelBackgroundColor=none;labelBorderColor=none;" vertex="1" parent="38"><mxGeometry width="30" height="30" as="geometry"><mxRectangle width="30" height="30" as="alternateBounds"/></mxGeometry></mxCell><mxCell id="40" value="type VARCHAR(60) NOTNULL" style="shape=partialRectangle;connectable=0;fillColor=default;top=0;left=0;bottom=0;right=0;align=left;spacingLeft=6;overflow=hidden;labelBackgroundColor=none;labelBorderColor=none;" vertex="1" parent="38"><mxGeometry x="30" width="290" height="30" as="geometry"><mxRectangle width="290" height="30" as="alternateBounds"/></mxGeometry></mxCell><mxCell id="41" value="TAGS" style="shape=table;startSize=30;container=1;collapsible=1;childLayout=tableLayout;fixedRows=1;rowLines=0;fontStyle=1;align=center;resizeLast=1;labelBackgroundColor=none;labelBorderColor=none;" vertex="1" parent="1"><mxGeometry x="220" y="870" width="310" height="90" as="geometry"/></mxCell><mxCell id="42" value="" style="shape=tableRow;horizontal=0;startSize=0;swimlaneHead=0;swimlaneBody=0;fillColor=none;collapsible=0;dropTarget=0;points=[[0,0.5],[1,0.5]];portConstraint=eastwest;top=0;left=0;right=0;bottom=1;labelBackgroundColor=none;labelBorderColor=none;" vertex="1" parent="41"><mxGeometry y="30" width="310" height="30" as="geometry"/></mxCell><mxCell id="43" value="PK" style="shape=partialRectangle;connectable=0;fillColor=default;top=0;left=0;bottom=0;right=0;fontStyle=1;overflow=hidden;labelBackgroundColor=none;labelBorderColor=none;" vertex="1" parent="42"><mxGeometry width="30" height="30" as="geometry"><mxRectangle width="30" height="30" as="alternateBounds"/></mxGeometry></mxCell><mxCell id="44" value="id BIGINTUNSIGNED AUTO UNIQUE NOTNULL" style="shape=partialRectangle;connectable=0;fillColor=default;top=0;left=0;bottom=0;right=0;align=left;spacingLeft=6;fontStyle=5;overflow=hidden;labelBackgroundColor=none;labelBorderColor=none;" vertex="1" parent="42"><mxGeometry x="30" width="280" height="30" as="geometry"><mxRectangle width="280" height="30" as="alternateBounds"/></mxGeometry></mxCell><mxCell id="45" value="" style="shape=tableRow;horizontal=0;startSize=0;swimlaneHead=0;swimlaneBody=0;fillColor=none;collapsible=0;dropTarget=0;points=[[0,0.5],[1,0.5]];portConstraint=eastwest;top=0;left=0;right=0;bottom=0;labelBackgroundColor=none;labelBorderColor=none;" vertex="1" parent="41"><mxGeometry y="60" width="310" height="30" as="geometry"/></mxCell><mxCell id="46" value="" style="shape=partialRectangle;connectable=0;fillColor=default;top=0;left=0;bottom=0;right=0;editable=1;overflow=hidden;labelBackgroundColor=none;labelBorderColor=none;" vertex="1" parent="45"><mxGeometry width="30" height="30" as="geometry"><mxRectangle width="30" height="30" as="alternateBounds"/></mxGeometry></mxCell><mxCell id="47" value="name VARCHAR(255) NOTNULL UNIQUE" style="shape=partialRectangle;connectable=0;fillColor=default;top=0;left=0;bottom=0;right=0;align=left;spacingLeft=6;overflow=hidden;labelBackgroundColor=none;labelBorderColor=none;" vertex="1" parent="45"><mxGeometry x="30" width="280" height="30" as="geometry"><mxRectangle width="280" height="30" as="alternateBounds"/></mxGeometry></mxCell><mxCell id="54" value="COMMENTS" style="shape=table;startSize=30;container=1;collapsible=1;childLayout=tableLayout;fixedRows=1;rowLines=0;fontStyle=1;align=center;resizeLast=1;labelBackgroundColor=none;labelBorderColor=none;" vertex="1" parent="1"><mxGeometry x="1020" y="850" width="320" height="180" as="geometry"/></mxCell><mxCell id="55" value="" style="shape=tableRow;horizontal=0;startSize=0;swimlaneHead=0;swimlaneBody=0;fillColor=none;collapsible=0;dropTarget=0;points=[[0,0.5],[1,0.5]];portConstraint=eastwest;top=0;left=0;right=0;bottom=1;labelBackgroundColor=none;labelBorderColor=none;" vertex="1" parent="54"><mxGeometry y="30" width="320" height="30" as="geometry"/></mxCell><mxCell id="56" value="PK" style="shape=partialRectangle;connectable=0;fillColor=default;top=0;left=0;bottom=0;right=0;fontStyle=1;overflow=hidden;labelBackgroundColor=none;labelBorderColor=none;" vertex="1" parent="55"><mxGeometry width="30" height="30" as="geometry"><mxRectangle width="30" height="30" as="alternateBounds"/></mxGeometry></mxCell><mxCell id="57" value="id BIGINTUNSIGNED AUTO UNIQUE NOTNULL" style="shape=partialRectangle;connectable=0;fillColor=default;top=0;left=0;bottom=0;right=0;align=left;spacingLeft=6;fontStyle=5;overflow=hidden;labelBackgroundColor=none;labelBorderColor=none;" vertex="1" parent="55"><mxGeometry x="30" width="290" height="30" as="geometry"><mxRectangle width="290" height="30" as="alternateBounds"/></mxGeometry></mxCell><mxCell id="58" value="" style="shape=tableRow;horizontal=0;startSize=0;swimlaneHead=0;swimlaneBody=0;fillColor=none;collapsible=0;dropTarget=0;points=[[0,0.5],[1,0.5]];portConstraint=eastwest;top=0;left=0;right=0;bottom=0;labelBackgroundColor=none;labelBorderColor=none;" vertex="1" parent="54"><mxGeometry y="60" width="320" height="30" as="geometry"/></mxCell><mxCell id="59" value="FK" style="shape=partialRectangle;connectable=0;fillColor=default;top=0;left=0;bottom=0;right=0;editable=1;overflow=hidden;labelBackgroundColor=none;labelBorderColor=none;" vertex="1" parent="58"><mxGeometry width="30" height="30" as="geometry"><mxRectangle width="30" height="30" as="alternateBounds"/></mxGeometry></mxCell><mxCell id="60" value="post_id BIGINTUNSIGNED UNIQUE NOTNULL" style="shape=partialRectangle;connectable=0;fillColor=default;top=0;left=0;bottom=0;right=0;align=left;spacingLeft=6;overflow=hidden;labelBackgroundColor=none;labelBorderColor=none;" vertex="1" parent="58"><mxGeometry x="30" width="290" height="30" as="geometry"><mxRectangle width="290" height="30" as="alternateBounds"/></mxGeometry></mxCell><mxCell id="61" value="" style="shape=tableRow;horizontal=0;startSize=0;swimlaneHead=0;swimlaneBody=0;fillColor=none;collapsible=0;dropTarget=0;points=[[0,0.5],[1,0.5]];portConstraint=eastwest;top=0;left=0;right=0;bottom=0;labelBackgroundColor=none;labelBorderColor=none;" vertex="1" parent="54"><mxGeometry y="90" width="320" height="30" as="geometry"/></mxCell><mxCell id="62" value="FK" style="shape=partialRectangle;connectable=0;fillColor=default;top=0;left=0;bottom=0;right=0;editable=1;overflow=hidden;labelBackgroundColor=none;labelBorderColor=none;" vertex="1" parent="61"><mxGeometry width="30" height="30" as="geometry"><mxRectangle width="30" height="30" as="alternateBounds"/></mxGeometry></mxCell><mxCell id="63" value="user_id BIGINTUNSIGNED UNIQUE NOTNULL" style="shape=partialRectangle;connectable=0;fillColor=default;top=0;left=0;bottom=0;right=0;align=left;spacingLeft=6;overflow=hidden;labelBackgroundColor=none;labelBorderColor=none;" vertex="1" parent="61"><mxGeometry x="30" width="290" height="30" as="geometry"><mxRectangle width="290" height="30" as="alternateBounds"/></mxGeometry></mxCell><mxCell id="64" value="" style="shape=tableRow;horizontal=0;startSize=0;swimlaneHead=0;swimlaneBody=0;fillColor=none;collapsible=0;dropTarget=0;points=[[0,0.5],[1,0.5]];portConstraint=eastwest;top=0;left=0;right=0;bottom=0;labelBackgroundColor=none;labelBorderColor=none;" vertex="1" parent="54"><mxGeometry y="120" width="320" height="30" as="geometry"/></mxCell><mxCell id="65" value="" style="shape=partialRectangle;connectable=0;fillColor=none;top=0;left=0;bottom=0;right=0;editable=1;overflow=hidden;labelBackgroundColor=none;labelBorderColor=none;" vertex="1" parent="64"><mxGeometry width="30" height="30" as="geometry"><mxRectangle width="30" height="30" as="alternateBounds"/></mxGeometry></mxCell><mxCell id="66" value="body TEXT(2200) NOTNULL" style="shape=partialRectangle;connectable=0;fillColor=default;top=0;left=0;bottom=0;right=0;align=left;spacingLeft=6;overflow=hidden;labelBackgroundColor=none;labelBorderColor=none;" vertex="1" parent="64"><mxGeometry x="30" width="290" height="30" as="geometry"><mxRectangle width="290" height="30" as="alternateBounds"/></mxGeometry></mxCell><mxCell id="124" value="" style="shape=tableRow;horizontal=0;startSize=0;swimlaneHead=0;swimlaneBody=0;fillColor=none;collapsible=0;dropTarget=0;points=[[0,0.5],[1,0.5]];portConstraint=eastwest;top=0;left=0;right=0;bottom=0;labelBackgroundColor=none;labelBorderColor=none;" vertex="1" parent="54"><mxGeometry y="150" width="320" height="30" as="geometry"/></mxCell><mxCell id="125" value="" style="shape=partialRectangle;connectable=0;fillColor=none;top=0;left=0;bottom=0;right=0;editable=1;overflow=hidden;labelBackgroundColor=none;labelBorderColor=none;" vertex="1" parent="124"><mxGeometry width="30" height="30" as="geometry"><mxRectangle width="30" height="30" as="alternateBounds"/></mxGeometry></mxCell><mxCell id="126" value="created_date DATATIME NOTNULL" style="shape=partialRectangle;connectable=0;fillColor=default;top=0;left=0;bottom=0;right=0;align=left;spacingLeft=6;overflow=hidden;labelBackgroundColor=none;labelBorderColor=none;" vertex="1" parent="124"><mxGeometry x="30" width="290" height="30" as="geometry"><mxRectangle width="290" height="30" as="alternateBounds"/></mxGeometry></mxCell><mxCell id="80" value="MEDIA_POST" style="shape=table;startSize=30;container=1;collapsible=1;childLayout=tableLayout;fixedRows=1;rowLines=0;fontStyle=1;align=center;resizeLast=1;labelBackgroundColor=none;labelBorderColor=none;" vertex="1" parent="1"><mxGeometry x="30" y="295" width="350" height="90" as="geometry"/></mxCell><mxCell id="81" value="" style="shape=tableRow;horizontal=0;startSize=0;swimlaneHead=0;swimlaneBody=0;fillColor=none;collapsible=0;dropTarget=0;points=[[0,0.5],[1,0.5]];portConstraint=eastwest;top=0;left=0;right=0;bottom=0;labelBackgroundColor=none;labelBorderColor=none;" vertex="1" parent="80"><mxGeometry y="30" width="350" height="30" as="geometry"/></mxCell><mxCell id="82" value="PK,FK1" style="shape=partialRectangle;connectable=0;fillColor=default;top=0;left=0;bottom=0;right=0;fontStyle=1;overflow=hidden;labelBackgroundColor=none;labelBorderColor=none;" vertex="1" parent="81"><mxGeometry width="60" height="30" as="geometry"><mxRectangle width="60" height="30" as="alternateBounds"/></mxGeometry></mxCell><mxCell id="83" value="media_id BIGINTUNSIGNED UNIQUE NOTNULL" style="shape=partialRectangle;connectable=0;fillColor=default;top=0;left=0;bottom=0;right=0;align=left;spacingLeft=6;fontStyle=5;overflow=hidden;labelBackgroundColor=none;labelBorderColor=none;" vertex="1" parent="81"><mxGeometry x="60" width="290" height="30" as="geometry"><mxRectangle width="290" height="30" as="alternateBounds"/></mxGeometry></mxCell><mxCell id="84" value="" style="shape=tableRow;horizontal=0;startSize=0;swimlaneHead=0;swimlaneBody=0;fillColor=none;collapsible=0;dropTarget=0;points=[[0,0.5],[1,0.5]];portConstraint=eastwest;top=0;left=0;right=0;bottom=1;labelBackgroundColor=none;labelBorderColor=none;" vertex="1" parent="80"><mxGeometry y="60" width="350" height="30" as="geometry"/></mxCell><mxCell id="85" value="PK,FK2" style="shape=partialRectangle;connectable=0;fillColor=default;top=0;left=0;bottom=0;right=0;fontStyle=1;overflow=hidden;labelBackgroundColor=none;labelBorderColor=none;" vertex="1" parent="84"><mxGeometry width="60" height="30" as="geometry"><mxRectangle width="60" height="30" as="alternateBounds"/></mxGeometry></mxCell><mxCell id="86" value="post_id BIGINTUNSIGNED UNIQUE NOTNULL" style="shape=partialRectangle;connectable=0;fillColor=default;top=0;left=0;bottom=0;right=0;align=left;spacingLeft=6;fontStyle=5;overflow=hidden;labelBackgroundColor=none;labelBorderColor=none;" vertex="1" parent="84"><mxGeometry x="60" width="290" height="30" as="geometry"><mxRectangle width="290" height="30" as="alternateBounds"/></mxGeometry></mxCell><mxCell id="93" value="POST_TAG" style="shape=table;startSize=30;container=1;collapsible=1;childLayout=tableLayout;fixedRows=1;rowLines=0;fontStyle=1;align=center;resizeLast=1;labelBackgroundColor=none;labelBorderColor=none;" vertex="1" parent="1"><mxGeometry x="45" y="645" width="340" height="90" as="geometry"/></mxCell><mxCell id="94" value="" style="shape=tableRow;horizontal=0;startSize=0;swimlaneHead=0;swimlaneBody=0;fillColor=none;collapsible=0;dropTarget=0;points=[[0,0.5],[1,0.5]];portConstraint=eastwest;top=0;left=0;right=0;bottom=0;labelBackgroundColor=none;labelBorderColor=none;" vertex="1" parent="93"><mxGeometry y="30" width="340" height="30" as="geometry"/></mxCell><mxCell id="95" value="PK,FK1" style="shape=partialRectangle;connectable=0;fillColor=default;top=0;left=0;bottom=0;right=0;fontStyle=1;overflow=hidden;labelBackgroundColor=none;labelBorderColor=none;" vertex="1" parent="94"><mxGeometry width="60" height="30" as="geometry"><mxRectangle width="60" height="30" as="alternateBounds"/></mxGeometry></mxCell><mxCell id="96" value="post_id BIGINTUNSIGNED UNIQUE NOTNULL" style="shape=partialRectangle;connectable=0;fillColor=default;top=0;left=0;bottom=0;right=0;align=left;spacingLeft=6;fontStyle=5;overflow=hidden;labelBackgroundColor=none;labelBorderColor=none;" vertex="1" parent="94"><mxGeometry x="60" width="280" height="30" as="geometry"><mxRectangle width="280" height="30" as="alternateBounds"/></mxGeometry></mxCell><mxCell id="97" value="" style="shape=tableRow;horizontal=0;startSize=0;swimlaneHead=0;swimlaneBody=0;fillColor=none;collapsible=0;dropTarget=0;points=[[0,0.5],[1,0.5]];portConstraint=eastwest;top=0;left=0;right=0;bottom=1;labelBackgroundColor=none;labelBorderColor=none;" vertex="1" parent="93"><mxGeometry y="60" width="340" height="30" as="geometry"/></mxCell><mxCell id="98" value="PK,FK2" style="shape=partialRectangle;connectable=0;fillColor=default;top=0;left=0;bottom=0;right=0;fontStyle=1;overflow=hidden;labelBackgroundColor=none;labelBorderColor=none;" vertex="1" parent="97"><mxGeometry width="60" height="30" as="geometry"><mxRectangle width="60" height="30" as="alternateBounds"/></mxGeometry></mxCell><mxCell id="99" value="tag_id BIGINTUNSIGNED UNIQUE NOTNULL" style="shape=partialRectangle;connectable=0;fillColor=default;top=0;left=0;bottom=0;right=0;align=left;spacingLeft=6;fontStyle=5;overflow=hidden;labelBackgroundColor=none;labelBorderColor=none;" vertex="1" parent="97"><mxGeometry x="60" width="280" height="30" as="geometry"><mxRectangle width="280" height="30" as="alternateBounds"/></mxGeometry></mxCell><mxCell id="106" value="LIKES" style="shape=table;startSize=30;container=1;collapsible=1;childLayout=tableLayout;fixedRows=1;rowLines=0;fontStyle=1;align=center;resizeLast=1;labelBackgroundColor=none;labelBorderColor=none;" vertex="1" parent="1"><mxGeometry x="1030" y="70" width="340" height="120" as="geometry"/></mxCell><mxCell id="107" value="" style="shape=tableRow;horizontal=0;startSize=0;swimlaneHead=0;swimlaneBody=0;fillColor=none;collapsible=0;dropTarget=0;points=[[0,0.5],[1,0.5]];portConstraint=eastwest;top=0;left=0;right=0;bottom=0;labelBackgroundColor=none;labelBorderColor=none;" vertex="1" parent="106"><mxGeometry y="30" width="340" height="30" as="geometry"/></mxCell><mxCell id="108" value="PK,FK1" style="shape=partialRectangle;connectable=0;fillColor=default;top=0;left=0;bottom=0;right=0;fontStyle=1;overflow=hidden;labelBackgroundColor=none;labelBorderColor=none;" vertex="1" parent="107"><mxGeometry width="60" height="30" as="geometry"><mxRectangle width="60" height="30" as="alternateBounds"/></mxGeometry></mxCell><mxCell id="109" value="user_id BIGINTUNSIGNED UNIQUE NOTNULL" style="shape=partialRectangle;connectable=0;fillColor=default;top=0;left=0;bottom=0;right=0;align=left;spacingLeft=6;fontStyle=5;overflow=hidden;labelBackgroundColor=none;labelBorderColor=none;" vertex="1" parent="107"><mxGeometry x="60" width="280" height="30" as="geometry"><mxRectangle width="280" height="30" as="alternateBounds"/></mxGeometry></mxCell><mxCell id="110" value="" style="shape=tableRow;horizontal=0;startSize=0;swimlaneHead=0;swimlaneBody=0;fillColor=none;collapsible=0;dropTarget=0;points=[[0,0.5],[1,0.5]];portConstraint=eastwest;top=0;left=0;right=0;bottom=1;labelBackgroundColor=none;labelBorderColor=none;" vertex="1" parent="106"><mxGeometry y="60" width="340" height="30" as="geometry"/></mxCell><mxCell id="111" value="PK,FK2" style="shape=partialRectangle;connectable=0;fillColor=default;top=0;left=0;bottom=0;right=0;fontStyle=1;overflow=hidden;labelBackgroundColor=none;labelBorderColor=none;" vertex="1" parent="110"><mxGeometry width="60" height="30" as="geometry"><mxRectangle width="60" height="30" as="alternateBounds"/></mxGeometry></mxCell><mxCell id="112" value="post_id BIGINTUNSIGNED UNIQUE NOTNULL" style="shape=partialRectangle;connectable=0;top=0;left=0;bottom=0;right=0;align=left;spacingLeft=6;fontStyle=5;overflow=hidden;fillColor=default;labelBackgroundColor=none;labelBorderColor=none;" vertex="1" parent="110"><mxGeometry x="60" width="280" height="30" as="geometry"><mxRectangle width="280" height="30" as="alternateBounds"/></mxGeometry></mxCell><mxCell id="113" value="" style="shape=tableRow;horizontal=0;startSize=0;swimlaneHead=0;swimlaneBody=0;fillColor=none;collapsible=0;dropTarget=0;points=[[0,0.5],[1,0.5]];portConstraint=eastwest;top=0;left=0;right=0;bottom=0;labelBackgroundColor=none;labelBorderColor=none;" vertex="1" parent="106"><mxGeometry y="90" width="340" height="30" as="geometry"/></mxCell><mxCell id="114" value="" style="shape=partialRectangle;connectable=0;fillColor=none;top=0;left=0;bottom=0;right=0;editable=1;overflow=hidden;labelBackgroundColor=none;labelBorderColor=none;" vertex="1" parent="113"><mxGeometry width="60" height="30" as="geometry"><mxRectangle width="60" height="30" as="alternateBounds"/></mxGeometry></mxCell><mxCell id="115" value="created_date DATATIME NOTNULL" style="shape=partialRectangle;connectable=0;fillColor=default;top=0;left=0;bottom=0;right=0;align=left;spacingLeft=6;overflow=hidden;labelBackgroundColor=none;labelBorderColor=none;" vertex="1" parent="113"><mxGeometry x="60" width="280" height="30" as="geometry"><mxRectangle width="280" height="30" as="alternateBounds"/></mxGeometry></mxCell><mxCell id="128" value="" style="edgeStyle=entityRelationEdgeStyle;fontSize=12;endArrow=ERoneToMany;exitX=0;exitY=0.5;exitDx=0;exitDy=0;entryX=1;entryY=0.5;entryDx=0;entryDy=0;startArrow=none;labelBackgroundColor=none;labelBorderColor=none;" edge="1" parent="1" source="131" target="19"><mxGeometry width="100" height="100" relative="1" as="geometry"><mxPoint x="1050" y="460" as="sourcePoint"/><mxPoint x="1150" y="360" as="targetPoint"/></mxGeometry></mxCell><mxCell id="130" value="*" style="edgeLabel;align=center;verticalAlign=middle;resizable=0;points=[];fontSize=36;labelBackgroundColor=none;labelBorderColor=none;" vertex="1" connectable="0" parent="128"><mxGeometry x="0.8099" y="2" relative="1" as="geometry"><mxPoint x="44" y="28" as="offset"/></mxGeometry></mxCell><mxCell id="132" value="" style="edgeStyle=entityRelationEdgeStyle;fontSize=12;endArrow=none;exitX=0;exitY=0.5;exitDx=0;exitDy=0;entryX=1;entryY=0.5;entryDx=0;entryDy=0;labelBackgroundColor=none;labelBorderColor=none;" edge="1" parent="1" source="3" target="131"><mxGeometry width="100" height="100" relative="1" as="geometry"><mxPoint x="1220" y="435" as="sourcePoint"/><mxPoint x="960" y="485" as="targetPoint"/></mxGeometry></mxCell><mxCell id="133" value="1" style="edgeLabel;align=center;verticalAlign=middle;resizable=0;points=[];fontSize=25;labelBackgroundColor=none;labelBorderColor=none;" vertex="1" connectable="0" parent="132"><mxGeometry x="-0.8577" y="2" relative="1" as="geometry"><mxPoint x="-21" y="-27" as="offset"/></mxGeometry></mxCell><mxCell id="131" value="Relationship" style="shape=rhombus;perimeter=rhombusPerimeter;align=center;fontSize=15;labelBackgroundColor=none;labelBorderColor=none;" vertex="1" parent="1"><mxGeometry x="1130" y="460" width="120" height="60" as="geometry"/></mxCell><mxCell id="136" value="" style="edgeStyle=orthogonalEdgeStyle;fontSize=12;endArrow=ERoneToMany;exitX=0.5;exitY=0;exitDx=0;exitDy=0;entryX=0;entryY=0.5;entryDx=0;entryDy=0;startArrow=none;labelBackgroundColor=none;labelBorderColor=none;" edge="1" parent="1" source="139" target="110"><mxGeometry width="100" height="100" relative="1" as="geometry"><mxPoint x="780" y="330" as="sourcePoint"/><mxPoint x="880" y="230" as="targetPoint"/></mxGeometry></mxCell><mxCell id="144" value="*" style="edgeLabel;align=center;verticalAlign=middle;resizable=0;points=[];fontSize=34;labelBackgroundColor=none;labelBorderColor=none;" vertex="1" connectable="0" parent="136"><mxGeometry x="0.4532" y="1" relative="1" as="geometry"><mxPoint x="-19" y="-10" as="offset"/></mxGeometry></mxCell><mxCell id="182" value="*" style="edgeLabel;align=center;verticalAlign=middle;resizable=0;points=[];fontSize=36;labelBackgroundColor=none;labelBorderColor=none;" vertex="1" connectable="0" parent="136"><mxGeometry x="0.4532" y="1" relative="1" as="geometry"><mxPoint x="-19" y="-12" as="offset"/></mxGeometry></mxCell><mxCell id="138" value="" style="edgeStyle=orthogonalEdgeStyle;fontSize=12;endArrow=ERoneToMany;exitX=0.5;exitY=0;exitDx=0;exitDy=0;entryX=1;entryY=0.5;entryDx=0;entryDy=0;startArrow=none;labelBackgroundColor=none;labelBorderColor=none;" edge="1" parent="1" source="141" target="107"><mxGeometry width="100" height="100" relative="1" as="geometry"><mxPoint x="1480" y="390" as="sourcePoint"/><mxPoint x="1550" y="80" as="targetPoint"/></mxGeometry></mxCell><mxCell id="145" value="*" style="edgeLabel;align=center;verticalAlign=middle;resizable=0;points=[];fontSize=36;labelBackgroundColor=none;labelBorderColor=none;" vertex="1" connectable="0" parent="138"><mxGeometry x="0.4122" y="-2" relative="1" as="geometry"><mxPoint x="-43" y="-23" as="offset"/></mxGeometry></mxCell><mxCell id="140" value="" style="edgeStyle=orthogonalEdgeStyle;fontSize=12;endArrow=none;exitX=1;exitY=0.5;exitDx=0;exitDy=0;entryX=0.5;entryY=1;entryDx=0;entryDy=0;labelBackgroundColor=none;labelBorderColor=none;" edge="1" parent="1" source="16" target="139"><mxGeometry width="100" height="100" relative="1" as="geometry"><mxPoint x="960" y="455" as="sourcePoint"/><mxPoint x="1060" y="340" as="targetPoint"/></mxGeometry></mxCell><mxCell id="143" value="1" style="edgeLabel;align=center;verticalAlign=middle;resizable=0;points=[];fontSize=25;labelBackgroundColor=none;labelBorderColor=none;" vertex="1" connectable="0" parent="140"><mxGeometry x="-0.4907" y="-2" relative="1" as="geometry"><mxPoint x="-22" y="-21" as="offset"/></mxGeometry></mxCell><mxCell id="139" value="Relationship" style="shape=rhombus;perimeter=rhombusPerimeter;align=center;fontSize=15;labelBackgroundColor=none;labelBorderColor=none;" vertex="1" parent="1"><mxGeometry x="940" y="260" width="120" height="60" as="geometry"/></mxCell><mxCell id="142" value="" style="edgeStyle=orthogonalEdgeStyle;fontSize=12;endArrow=none;exitX=0.25;exitY=0;exitDx=0;exitDy=0;entryX=0.5;entryY=1;entryDx=0;entryDy=0;labelBackgroundColor=none;labelBorderColor=none;" edge="1" parent="1" source="2" target="141"><mxGeometry width="100" height="100" relative="1" as="geometry"><mxPoint x="1420" y="490" as="sourcePoint"/><mxPoint x="1370" y="115" as="targetPoint"/></mxGeometry></mxCell><mxCell id="146" value="1" style="edgeLabel;align=center;verticalAlign=middle;resizable=0;points=[];fontSize=25;labelBackgroundColor=none;labelBorderColor=none;" vertex="1" connectable="0" parent="142"><mxGeometry x="-0.6901" y="1" relative="1" as="geometry"><mxPoint x="21" y="-5" as="offset"/></mxGeometry></mxCell><mxCell id="141" value="Relationship" style="shape=rhombus;perimeter=rhombusPerimeter;align=center;fontSize=15;labelBackgroundColor=none;labelBorderColor=none;" vertex="1" parent="1"><mxGeometry x="1480" y="230" width="120" height="60" as="geometry"/></mxCell><mxCell id="153" value="" style="edgeStyle=orthogonalEdgeStyle;fontSize=12;endArrow=ERoneToMany;exitX=0.55;exitY=1.036;exitDx=0;exitDy=0;entryX=0;entryY=0.5;entryDx=0;entryDy=0;startArrow=none;exitPerimeter=0;labelBackgroundColor=none;labelBorderColor=none;" edge="1" parent="1" source="158" target="58"><mxGeometry width="100" height="100" relative="1" as="geometry"><mxPoint x="930" y="740" as="sourcePoint"/><mxPoint x="1030" y="640" as="targetPoint"/></mxGeometry></mxCell><mxCell id="161" value="*" style="edgeLabel;align=center;verticalAlign=middle;resizable=0;points=[];fontSize=36;labelBackgroundColor=none;labelBorderColor=none;" vertex="1" connectable="0" parent="153"><mxGeometry x="0.5802" y="-1" relative="1" as="geometry"><mxPoint x="-15" y="14" as="offset"/></mxGeometry></mxCell><mxCell id="188" value="*" style="edgeLabel;align=center;verticalAlign=middle;resizable=0;points=[];fontSize=36;labelBackgroundColor=none;labelBorderColor=none;" vertex="1" connectable="0" parent="153"><mxGeometry x="0.5802" y="-1" relative="1" as="geometry"><mxPoint x="-15" y="12" as="offset"/></mxGeometry></mxCell><mxCell id="155" value="" style="edgeStyle=orthogonalEdgeStyle;fontSize=12;endArrow=ERoneToMany;exitX=0.5;exitY=1;exitDx=0;exitDy=0;entryX=1;entryY=0.5;entryDx=0;entryDy=0;startArrow=none;labelBackgroundColor=none;labelBorderColor=none;" edge="1" parent="1" source="156" target="61"><mxGeometry width="100" height="100" relative="1" as="geometry"><mxPoint x="1470" y="900" as="sourcePoint"/><mxPoint x="1570" y="800" as="targetPoint"/></mxGeometry></mxCell><mxCell id="162" value="*" style="edgeLabel;align=center;verticalAlign=middle;resizable=0;points=[];fontSize=36;labelBackgroundColor=none;labelBorderColor=none;" vertex="1" connectable="0" parent="155"><mxGeometry x="-0.087" relative="1" as="geometry"><mxPoint x="-50" y="33" as="offset"/></mxGeometry></mxCell><mxCell id="157" value="" style="edgeStyle=orthogonalEdgeStyle;fontSize=12;endArrow=none;exitX=0;exitY=0.5;exitDx=0;exitDy=0;entryX=0.5;entryY=0;entryDx=0;entryDy=0;labelBackgroundColor=none;labelBorderColor=none;" edge="1" parent="1" source="121" target="156"><mxGeometry width="100" height="100" relative="1" as="geometry"><mxPoint x="1410" y="655" as="sourcePoint"/><mxPoint x="1340" y="955.0000000000002" as="targetPoint"/></mxGeometry></mxCell><mxCell id="163" value="1" style="edgeLabel;align=center;verticalAlign=middle;resizable=0;points=[];fontSize=36;labelBackgroundColor=none;labelBorderColor=none;" vertex="1" connectable="0" parent="157"><mxGeometry x="-0.5779" y="-1" relative="1" as="geometry"><mxPoint x="-19" y="1" as="offset"/></mxGeometry></mxCell><mxCell id="156" value="Relationship" style="shape=rhombus;perimeter=rhombusPerimeter;align=center;fontSize=15;labelBackgroundColor=none;labelBorderColor=none;" vertex="1" parent="1"><mxGeometry x="1380" y="805" width="120" height="60" as="geometry"/></mxCell><mxCell id="159" value="" style="edgeStyle=orthogonalEdgeStyle;fontSize=12;endArrow=none;exitX=1;exitY=0.5;exitDx=0;exitDy=0;entryX=0.5;entryY=0;entryDx=0;entryDy=0;labelBackgroundColor=none;labelBorderColor=none;" edge="1" parent="1" source="25" target="158"><mxGeometry width="100" height="100" relative="1" as="geometry"><mxPoint x="960" y="545" as="sourcePoint"/><mxPoint x="1020" y="925.0000000000002" as="targetPoint"/></mxGeometry></mxCell><mxCell id="160" value="1" style="edgeLabel;align=center;verticalAlign=middle;resizable=0;points=[];fontSize=25;labelBackgroundColor=none;labelBorderColor=none;" vertex="1" connectable="0" parent="159"><mxGeometry x="-0.3017" y="2" relative="1" as="geometry"><mxPoint x="-22" y="8" as="offset"/></mxGeometry></mxCell><mxCell id="158" value="Relationship" style="shape=rhombus;perimeter=rhombusPerimeter;align=center;fontSize=15;labelBackgroundColor=none;labelBorderColor=none;" vertex="1" parent="1"><mxGeometry x="930" y="680" width="120" height="60" as="geometry"/></mxCell><mxCell id="164" value="" style="edgeStyle=orthogonalEdgeStyle;fontSize=12;endArrow=ERmany;startArrow=none;exitX=0.5;exitY=0;exitDx=0;exitDy=0;entryX=0;entryY=0.5;entryDx=0;entryDy=0;labelBackgroundColor=none;labelBorderColor=none;" edge="1" parent="1" source="165" target="25"><mxGeometry width="100" height="100" relative="1" as="geometry"><mxPoint x="510" y="750" as="sourcePoint"/><mxPoint x="610" y="650" as="targetPoint"/></mxGeometry></mxCell><mxCell id="180" value="*" style="edgeLabel;align=center;verticalAlign=middle;resizable=0;points=[];fontSize=36;labelBackgroundColor=none;labelBorderColor=none;" vertex="1" connectable="0" parent="164"><mxGeometry x="0.726" relative="1" as="geometry"><mxPoint x="-14" y="35" as="offset"/></mxGeometry></mxCell><mxCell id="186" value="*" style="edgeLabel;align=center;verticalAlign=middle;resizable=0;points=[];fontSize=36;labelBackgroundColor=none;labelBorderColor=none;" vertex="1" connectable="0" parent="164"><mxGeometry x="0.726" relative="1" as="geometry"><mxPoint x="-14" y="33" as="offset"/></mxGeometry></mxCell><mxCell id="166" value="" style="edgeStyle=orthogonalEdgeStyle;fontSize=12;endArrow=none;startArrow=ERmany;exitX=0.997;exitY=0.275;exitDx=0;exitDy=0;exitPerimeter=0;entryX=0.5;entryY=1;entryDx=0;entryDy=0;labelBackgroundColor=none;labelBorderColor=none;" edge="1" parent="1" source="42" target="165"><mxGeometry width="100" height="100" relative="1" as="geometry"><mxPoint x="529.0700000000002" y="908.2500000000002" as="sourcePoint"/><mxPoint x="639.9999999999998" y="545" as="targetPoint"/></mxGeometry></mxCell><mxCell id="181" value="*" style="edgeLabel;align=center;verticalAlign=middle;resizable=0;points=[];fontSize=36;labelBackgroundColor=none;labelBorderColor=none;" vertex="1" connectable="0" parent="166"><mxGeometry x="-0.697" relative="1" as="geometry"><mxPoint x="10" y="19" as="offset"/></mxGeometry></mxCell><mxCell id="187" value="*" style="edgeLabel;align=center;verticalAlign=middle;resizable=0;points=[];fontSize=36;labelBackgroundColor=none;labelBorderColor=none;" vertex="1" connectable="0" parent="166"><mxGeometry x="-0.697" relative="1" as="geometry"><mxPoint x="10" y="17" as="offset"/></mxGeometry></mxCell><mxCell id="165" value="Relationship" style="shape=rhombus;perimeter=rhombusPerimeter;align=center;fontSize=15;labelBackgroundColor=none;labelBorderColor=none;" vertex="1" parent="1"><mxGeometry x="500" y="660" width="120" height="60" as="geometry"/></mxCell><mxCell id="167" value="" style="edgeStyle=orthogonalEdgeStyle;exitX=1;exitY=0.5;exitDx=0;exitDy=0;entryX=0;entryY=0.5;entryDx=0;entryDy=0;fontSize=15;labelBackgroundColor=none;labelBorderColor=none;" edge="1" parent="1" source="94" target="165"><mxGeometry relative="1" as="geometry"/></mxCell><mxCell id="168" value="" style="edgeStyle=orthogonalEdgeStyle;fontSize=12;endArrow=ERmany;startArrow=none;exitX=0.5;exitY=0;exitDx=0;exitDy=0;entryX=0.522;entryY=1.016;entryDx=0;entryDy=0;entryPerimeter=0;labelBackgroundColor=none;labelBorderColor=none;" edge="1" parent="1" source="169" target="38"><mxGeometry width="100" height="100" relative="1" as="geometry"><mxPoint x="490" y="390" as="sourcePoint"/><mxPoint x="590" y="290" as="targetPoint"/></mxGeometry></mxCell><mxCell id="177" value="*" style="edgeLabel;align=center;verticalAlign=middle;resizable=0;points=[];fontSize=36;labelBackgroundColor=none;labelBorderColor=none;" vertex="1" connectable="0" parent="168"><mxGeometry x="0.8367" y="-3" relative="1" as="geometry"><mxPoint x="10" y="14" as="offset"/></mxGeometry></mxCell><mxCell id="184" value="*" style="edgeLabel;align=center;verticalAlign=middle;resizable=0;points=[];fontSize=36;labelBackgroundColor=none;labelBorderColor=none;" vertex="1" connectable="0" parent="168"><mxGeometry x="0.8367" y="-3" relative="1" as="geometry"><mxPoint x="10" y="12" as="offset"/></mxGeometry></mxCell><mxCell id="170" value="" style="edgeStyle=orthogonalEdgeStyle;fontSize=12;endArrow=none;startArrow=ERmany;exitX=0;exitY=0.5;exitDx=0;exitDy=0;entryX=0.5;entryY=1;entryDx=0;entryDy=0;entryPerimeter=0;labelBackgroundColor=none;labelBorderColor=none;" edge="1" parent="1" source="16" target="169"><mxGeometry width="100" height="100" relative="1" as="geometry"><mxPoint x="640" y="455" as="sourcePoint"/><mxPoint x="537.04" y="190.48000000000002" as="targetPoint"/></mxGeometry></mxCell><mxCell id="179" value="*" style="edgeLabel;align=center;verticalAlign=middle;resizable=0;points=[];fontSize=36;labelBackgroundColor=none;labelBorderColor=none;" vertex="1" connectable="0" parent="170"><mxGeometry x="-0.7628" y="-1" relative="1" as="geometry"><mxPoint x="-1" y="-24" as="offset"/></mxGeometry></mxCell><mxCell id="185" value="*" style="edgeLabel;align=center;verticalAlign=middle;resizable=0;points=[];fontSize=36;labelBackgroundColor=none;labelBorderColor=none;" vertex="1" connectable="0" parent="170"><mxGeometry x="-0.7628" y="-1" relative="1" as="geometry"><mxPoint x="-1" y="-26" as="offset"/></mxGeometry></mxCell><mxCell id="169" value="Relationship" style="shape=rhombus;perimeter=rhombusPerimeter;align=center;fontSize=15;labelBackgroundColor=none;labelBorderColor=none;" vertex="1" parent="1"><mxGeometry x="500" y="310" width="120" height="60" as="geometry"/></mxCell><mxCell id="171" value="" style="edgeStyle=orthogonalEdgeStyle;exitX=1;exitY=0.5;exitDx=0;exitDy=0;entryX=0;entryY=0.5;entryDx=0;entryDy=0;fontSize=15;labelBackgroundColor=none;labelBorderColor=none;" edge="1" parent="1" source="81" target="169"><mxGeometry relative="1" as="geometry"/></mxCell><mxCell id="172" value="" style="edgeStyle=orthogonalEdgeStyle;fontSize=12;html=1;endArrow=ERoneToMany;exitX=0.5;exitY=0;exitDx=0;exitDy=0;entryX=1;entryY=0.133;entryDx=0;entryDy=0;entryPerimeter=0;startArrow=none;" edge="1" parent="1" source="173" target="28"><mxGeometry width="100" height="100" relative="1" as="geometry"><mxPoint x="1830" y="280" as="sourcePoint"/><mxPoint x="1830" y="20" as="targetPoint"/></mxGeometry></mxCell><mxCell id="175" value="*" style="edgeLabel;align=center;verticalAlign=middle;resizable=0;points=[];fontSize=36;labelBackgroundColor=none;labelBorderColor=none;" vertex="1" connectable="0" parent="172"><mxGeometry x="0.9356" y="3" relative="1" as="geometry"><mxPoint x="-16" y="27" as="offset"/></mxGeometry></mxCell><mxCell id="183" value="*" style="edgeLabel;align=center;verticalAlign=middle;resizable=0;points=[];fontSize=36;labelBackgroundColor=none;labelBorderColor=none;" vertex="1" connectable="0" parent="172"><mxGeometry x="0.9356" y="3" relative="1" as="geometry"><mxPoint x="-16" y="25" as="offset"/></mxGeometry></mxCell><mxCell id="174" value="" style="edgeStyle=orthogonalEdgeStyle;fontSize=12;endArrow=none;exitX=1;exitY=0.5;exitDx=0;exitDy=0;labelBackgroundColor=none;labelBorderColor=none;" edge="1" parent="1" source="3" target="173"><mxGeometry width="100" height="100" relative="1" as="geometry"><mxPoint x="1810" y="535" as="sourcePoint"/><mxPoint x="550" y="29.949999999999818" as="targetPoint"/></mxGeometry></mxCell><mxCell id="176" value="1" style="edgeLabel;align=center;verticalAlign=middle;resizable=0;points=[];fontSize=25;labelBackgroundColor=none;labelBorderColor=none;" vertex="1" connectable="0" parent="174"><mxGeometry x="-0.8044" y="-2" relative="1" as="geometry"><mxPoint x="-2" y="30" as="offset"/></mxGeometry></mxCell><mxCell id="173" value="Relationship" style="shape=rhombus;perimeter=rhombusPerimeter;align=center;fontSize=15;labelBackgroundColor=none;labelBorderColor=none;" vertex="1" parent="1"><mxGeometry x="1780" y="150" width="120" height="60" as="geometry"/></mxCell></root></mxGraphModel></diagram></mxfile>